<?xml version="1.0" encoding="UTF-8"?>
<svg id="Layer_2"
  xmlns="http://www.w3.org/2000/svg" viewBox="0 0 3315.85 826.6">
  <defs>
    <style>.cls-1{stroke-width:1.41px;}.cls-1,.cls-2,.cls-3{stroke:#1a1a1a;stroke-linecap:round;stroke-linejoin:round;}.cls-2{stroke-width:1.36px;}.cls-3{stroke-width:2px;}</style>
  </defs>
  <g id="HALF-DOWN-1">
    <g>
      <path class="cls-3" d="M3314.85,412.81c-12.45-4.11-21.9-9.42-26.65-16.62-1.58-40.95,26.65-59.63,24.21-118.68-7.68-70.85-30.11-133.44-27.16-213.15-48.02-100.75-176.54-75.58-197.8,34.84-1.77,69.08-1.24,89.67-11.81,148.79-18.3,54.91-10.63,80.3-23.62,112.18-.5,37.89,9.34,76.37,19.75,90.28l243.07-37.64Z"/>
      <path class="cls-1" d="M298.4,415.35c-13.32-.97-25.24-5.39-31.57-8.49-10.67-19.67,13.31-31.01-2.24-59.35-23.39-33.63-59.66-62.06-74.42-100.84C119.93,201.87-2.57,224.52,.77,279.63c13.58,33.55,18.68,43.46,21.28,72.9-6.04,28.04,7.25,39.69,1.38,56.17,7.92,18.36,24.61,37.45,38.08,43.33l236.88-36.68Z"/>
      <path class="cls-1" d="M2698.4,415.35c-13.32-.97-25.24-5.39-31.57-8.49-10.67-19.67,13.31-31.01-2.24-59.35-23.39-33.63-59.66-62.06-74.42-100.84-70.24-44.8-192.74-22.15-189.4,32.97,13.58,33.55,18.68,43.46,21.28,72.9-6.04,28.04,7.25,39.69,1.38,56.17,7.92,18.36,24.61,37.45,38.08,43.33l236.88-36.68Z"/>
      <path class="cls-3" d="M1225.8,578.62c-5.27,59.12-11.32,79.71-28.06,148.79-8.33,110.41,113.45,135.59,188.46,34.84,18.41-79.71,57.61-142.3,84.27-213.15,18.26-59.04-4.96-77.73,7.59-118.68,6.68-7.21,17.56-12.52,31.1-16.62l-247.65,38.24c-11.44,9.81-25.85,80.19-35.72,126.59Z"/>
      <path class="cls-2" d="M1826.26,489.95c-5.27,27.31-11.32,36.83-28.06,68.74-8.33,51.01,113.45,62.64,188.46,16.09,18.41-36.83,57.61-65.74,84.27-98.48,18.26-27.28-4.96-35.91,7.59-54.83,6.68-3.33,17.56-5.78,31.1-7.68l-248.11,38.24c-11.44,4.53-25.38,16.48-35.26,37.91Z"/>
      <path class="cls-2" d="M626.26,489.95c-5.27,27.31-11.32,36.83-28.06,68.74-8.33,51.01,113.45,62.64,188.46,16.09,18.41-36.83,57.61-65.74,84.27-98.48,18.26-27.28-4.96-35.91,7.59-54.83,6.68-3.33,17.56-5.78,31.1-7.68l-248.11,38.24c-11.44,4.53-25.38,16.48-35.26,37.91Z"/>
    </g>
  </g>
</svg>
