<svg xmlns="http://www.w3.org/2000/svg" viewBox="0 0 587 145"><path d="M295.23 135.97c49.96-5.93 99.86-19.48 149.65-49.86 18.68 3.15 43.97-3.6 79.28-25.34 23.38-6.81 44.51-12.02 62.12-14.71-5.35-11.48-24.98-17.18-46.59-22.07-25.35-20.52-58.38-27.24-98.94-20.43L187.43 42.8C133.92 59.71 66.38 63.69 13.34 69.77c-15.62 18.25-20.17 42.81 8.99 49.04 13.7 6.59 45.13-1 99.26-16.62 56.68 8.45 111.27 16.97 133.68 26.43 3.49 14.65 11.47 23.73 39.96 7.36Z" style="stroke:#1a1a1a;stroke-linecap:round;stroke-linejoin:round;stroke-width:2px"/><ellipse cx="508.33" cy="30.94" rx="6.54" ry="10.17" transform="rotate(-84.61 508.318 30.946)" style="stroke:#1a1a1a;stroke-linecap:round;stroke-linejoin:round;stroke-width:2px;fill:#333"/></svg>